<?xml version="1.0" encoding="utf-8" standalone="no"?>
<!DOCTYPE svg PUBLIC "-//W3C//DTD SVG 1.1//EN"
  "http://www.w3.org/Graphics/SVG/1.1/DTD/svg11.dtd">
<svg xmlns:xlink="http://www.w3.org/1999/xlink" width="921.6pt" height="633.6pt" viewBox="0 0 921.6 633.6" xmlns="http://www.w3.org/2000/svg" version="1.1">
 <metadata>
  <rdf:RDF xmlns:dc="http://purl.org/dc/elements/1.1/" xmlns:cc="http://creativecommons.org/ns#" xmlns:rdf="http://www.w3.org/1999/02/22-rdf-syntax-ns#">
   <cc:Work>
    <dc:type rdf:resource="http://purl.org/dc/dcmitype/StillImage"/>
    <dc:date>2024-07-01T11:14:50.113444</dc:date>
    <dc:format>image/svg+xml</dc:format>
    <dc:creator>
     <cc:Agent>
      <dc:title>Matplotlib v3.7.2, https://matplotlib.org/</dc:title>
     </cc:Agent>
    </dc:creator>
   </cc:Work>
  </rdf:RDF>
 </metadata>
 <defs>
  <style type="text/css">*{stroke-linejoin: round; stroke-linecap: butt}</style>
 </defs>
 <g id="figure_1">
  <g id="patch_1">
   <path d="M 0 633.6 
L 921.6 633.6 
L 921.6 0 
L 0 0 
z
" style="fill: #ffffff"/>
  </g>
  <g id="axes_1">
   <g id="patch_2">
    <path d="M 115.2 563.904 
L 829.44 563.904 
L 829.44 76.032 
L 115.2 76.032 
z
" style="fill: #ffffff"/>
   </g>
   <g id="patch_3">
    <path d="M 147.665455 563.904 
L 160.228583 563.904 
L 160.228583 150.890667 
L 147.665455 150.890667 
z
" clip-path="url(#p93f6bcc12e)" style="fill: #d31e25; opacity: 0.5"/>
   </g>
   <g id="patch_4">
    <path d="M 160.228583 563.904 
L 172.791712 563.904 
L 172.791712 460.650667 
L 160.228583 460.650667 
z
" clip-path="url(#p93f6bcc12e)" style="fill: #d31e25; opacity: 0.5"/>
   </g>
   <g id="patch_5">
    <path d="M 172.791712 563.904 
L 185.35484 563.904 
L 185.35484 563.904 
L 172.791712 563.904 
z
" clip-path="url(#p93f6bcc12e)" style="fill: #d31e25; opacity: 0.5"/>
   </g>
   <g id="patch_6">
    <path d="M 185.35484 563.904 
L 197.917969 563.904 
L 197.917969 512.277333 
L 185.35484 512.277333 
z
" clip-path="url(#p93f6bcc12e)" style="fill: #d31e25; opacity: 0.5"/>
   </g>
   <g id="patch_7">
    <path d="M 197.917969 563.904 
L 210.481098 563.904 
L 210.481098 563.904 
L 197.917969 563.904 
z
" clip-path="url(#p93f6bcc12e)" style="fill: #d31e25; opacity: 0.5"/>
   </g>
   <g id="patch_8">
    <path d="M 210.481098 563.904 
L 223.044226 563.904 
L 223.044226 563.904 
L 210.481098 563.904 
z
" clip-path="url(#p93f6bcc12e)" style="fill: #d31e25; opacity: 0.5"/>
   </g>
   <g id="patch_9">
    <path d="M 223.044226 563.904 
L 235.607355 563.904 
L 235.607355 512.277333 
L 223.044226 512.277333 
z
" clip-path="url(#p93f6bcc12e)" style="fill: #d31e25; opacity: 0.5"/>
   </g>
   <g id="patch_10">
    <path d="M 235.607355 563.904 
L 248.170484 563.904 
L 248.170484 409.024 
L 235.607355 409.024 
z
" clip-path="url(#p93f6bcc12e)" style="fill: #d31e25; opacity: 0.5"/>
   </g>
   <g id="patch_11">
    <path d="M 248.170484 563.904 
L 260.733612 563.904 
L 260.733612 563.904 
L 248.170484 563.904 
z
" clip-path="url(#p93f6bcc12e)" style="fill: #d31e25; opacity: 0.5"/>
   </g>
   <g id="patch_12">
    <path d="M 260.733612 563.904 
L 273.296741 563.904 
L 273.296741 563.904 
L 260.733612 563.904 
z
" clip-path="url(#p93f6bcc12e)" style="fill: #d31e25; opacity: 0.5"/>
   </g>
   <g id="patch_13">
    <path d="M 273.296741 563.904 
L 285.85987 563.904 
L 285.85987 512.277333 
L 273.296741 512.277333 
z
" clip-path="url(#p93f6bcc12e)" style="fill: #d31e25; opacity: 0.5"/>
   </g>
   <g id="patch_14">
    <path d="M 285.85987 563.904 
L 298.422998 563.904 
L 298.422998 563.904 
L 285.85987 563.904 
z
" clip-path="url(#p93f6bcc12e)" style="fill: #d31e25; opacity: 0.5"/>
   </g>
   <g id="patch_15">
    <path d="M 298.422998 563.904 
L 310.986127 563.904 
L 310.986127 512.277333 
L 298.422998 512.277333 
z
" clip-path="url(#p93f6bcc12e)" style="fill: #d31e25; opacity: 0.5"/>
   </g>
   <g id="patch_16">
    <path d="M 310.986127 563.904 
L 323.549256 563.904 
L 323.549256 409.024 
L 310.986127 409.024 
z
" clip-path="url(#p93f6bcc12e)" style="fill: #d31e25; opacity: 0.5"/>
   </g>
   <g id="patch_17">
    <path d="M 323.549256 563.904 
L 336.112384 563.904 
L 336.112384 512.277333 
L 323.549256 512.277333 
z
" clip-path="url(#p93f6bcc12e)" style="fill: #d31e25; opacity: 0.5"/>
   </g>
   <g id="patch_18">
    <path d="M 336.112384 563.904 
L 348.675513 563.904 
L 348.675513 512.277333 
L 336.112384 512.277333 
z
" clip-path="url(#p93f6bcc12e)" style="fill: #d31e25; opacity: 0.5"/>
   </g>
   <g id="patch_19">
    <path d="M 348.675513 563.904 
L 361.238642 563.904 
L 361.238642 563.904 
L 348.675513 563.904 
z
" clip-path="url(#p93f6bcc12e)" style="fill: #d31e25; opacity: 0.5"/>
   </g>
   <g id="patch_20">
    <path d="M 361.238642 563.904 
L 373.80177 563.904 
L 373.80177 512.277333 
L 361.238642 512.277333 
z
" clip-path="url(#p93f6bcc12e)" style="fill: #d31e25; opacity: 0.5"/>
   </g>
   <g id="patch_21">
    <path d="M 373.80177 563.904 
L 386.364899 563.904 
L 386.364899 563.904 
L 373.80177 563.904 
z
" clip-path="url(#p93f6bcc12e)" style="fill: #d31e25; opacity: 0.5"/>
   </g>
   <g id="patch_22">
    <path d="M 386.364899 563.904 
L 398.928028 563.904 
L 398.928028 512.277333 
L 386.364899 512.277333 
z
" clip-path="url(#p93f6bcc12e)" style="fill: #d31e25; opacity: 0.5"/>
   </g>
   <g id="patch_23">
    <path d="M 147.665455 563.904 
L 180.130909 563.904 
L 180.130909 305.770667 
L 147.665455 305.770667 
z
" clip-path="url(#p93f6bcc12e)" style="fill: #d7a32e; opacity: 0.5"/>
   </g>
   <g id="patch_24">
    <path d="M 180.130909 563.904 
L 212.596364 563.904 
L 212.596364 563.904 
L 180.130909 563.904 
z
" clip-path="url(#p93f6bcc12e)" style="fill: #d7a32e; opacity: 0.5"/>
   </g>
   <g id="patch_25">
    <path d="M 212.596364 563.904 
L 245.061818 563.904 
L 245.061818 512.277333 
L 212.596364 512.277333 
z
" clip-path="url(#p93f6bcc12e)" style="fill: #d7a32e; opacity: 0.5"/>
   </g>
   <g id="patch_26">
    <path d="M 245.061818 563.904 
L 277.527273 563.904 
L 277.527273 512.277333 
L 245.061818 512.277333 
z
" clip-path="url(#p93f6bcc12e)" style="fill: #d7a32e; opacity: 0.5"/>
   </g>
   <g id="patch_27">
    <path d="M 277.527273 563.904 
L 309.992727 563.904 
L 309.992727 563.904 
L 277.527273 563.904 
z
" clip-path="url(#p93f6bcc12e)" style="fill: #d7a32e; opacity: 0.5"/>
   </g>
   <g id="patch_28">
    <path d="M 309.992727 563.904 
L 342.458182 563.904 
L 342.458182 460.650667 
L 309.992727 460.650667 
z
" clip-path="url(#p93f6bcc12e)" style="fill: #d7a32e; opacity: 0.5"/>
   </g>
   <g id="patch_29">
    <path d="M 342.458182 563.904 
L 374.923636 563.904 
L 374.923636 512.277333 
L 342.458182 512.277333 
z
" clip-path="url(#p93f6bcc12e)" style="fill: #d7a32e; opacity: 0.5"/>
   </g>
   <g id="patch_30">
    <path d="M 374.923636 563.904 
L 407.389091 563.904 
L 407.389091 512.277333 
L 374.923636 512.277333 
z
" clip-path="url(#p93f6bcc12e)" style="fill: #d7a32e; opacity: 0.5"/>
   </g>
   <g id="patch_31">
    <path d="M 407.389091 563.904 
L 439.854545 563.904 
L 439.854545 512.277333 
L 407.389091 512.277333 
z
" clip-path="url(#p93f6bcc12e)" style="fill: #d7a32e; opacity: 0.5"/>
   </g>
   <g id="patch_32">
    <path d="M 439.854545 563.904 
L 472.32 563.904 
L 472.32 409.024 
L 439.854545 409.024 
z
" clip-path="url(#p93f6bcc12e)" style="fill: #d7a32e; opacity: 0.5"/>
   </g>
   <g id="patch_33">
    <path d="M 472.32 563.904 
L 504.785455 563.904 
L 504.785455 512.277333 
L 472.32 512.277333 
z
" clip-path="url(#p93f6bcc12e)" style="fill: #d7a32e; opacity: 0.5"/>
   </g>
   <g id="patch_34">
    <path d="M 504.785455 563.904 
L 537.250909 563.904 
L 537.250909 460.650667 
L 504.785455 460.650667 
z
" clip-path="url(#p93f6bcc12e)" style="fill: #d7a32e; opacity: 0.5"/>
   </g>
   <g id="patch_35">
    <path d="M 537.250909 563.904 
L 569.716364 563.904 
L 569.716364 512.277333 
L 537.250909 512.277333 
z
" clip-path="url(#p93f6bcc12e)" style="fill: #d7a32e; opacity: 0.5"/>
   </g>
   <g id="patch_36">
    <path d="M 569.716364 563.904 
L 602.181818 563.904 
L 602.181818 460.650667 
L 569.716364 460.650667 
z
" clip-path="url(#p93f6bcc12e)" style="fill: #d7a32e; opacity: 0.5"/>
   </g>
   <g id="patch_37">
    <path d="M 602.181818 563.904 
L 634.647273 563.904 
L 634.647273 512.277333 
L 602.181818 512.277333 
z
" clip-path="url(#p93f6bcc12e)" style="fill: #d7a32e; opacity: 0.5"/>
   </g>
   <g id="patch_38">
    <path d="M 634.647273 563.904 
L 667.112727 563.904 
L 667.112727 563.904 
L 634.647273 563.904 
z
" clip-path="url(#p93f6bcc12e)" style="fill: #d7a32e; opacity: 0.5"/>
   </g>
   <g id="patch_39">
    <path d="M 667.112727 563.904 
L 699.578182 563.904 
L 699.578182 512.277333 
L 667.112727 512.277333 
z
" clip-path="url(#p93f6bcc12e)" style="fill: #d7a32e; opacity: 0.5"/>
   </g>
   <g id="patch_40">
    <path d="M 699.578182 563.904 
L 732.043636 563.904 
L 732.043636 563.904 
L 699.578182 563.904 
z
" clip-path="url(#p93f6bcc12e)" style="fill: #d7a32e; opacity: 0.5"/>
   </g>
   <g id="patch_41">
    <path d="M 732.043636 563.904 
L 764.509091 563.904 
L 764.509091 563.904 
L 732.043636 563.904 
z
" clip-path="url(#p93f6bcc12e)" style="fill: #d7a32e; opacity: 0.5"/>
   </g>
   <g id="patch_42">
    <path d="M 764.509091 563.904 
L 796.974545 563.904 
L 796.974545 512.277333 
L 764.509091 512.277333 
z
" clip-path="url(#p93f6bcc12e)" style="fill: #d7a32e; opacity: 0.5"/>
   </g>
   <g id="patch_43">
    <path d="M 147.665455 563.904 
L 161.577266 563.904 
L 161.577266 99.264 
L 147.665455 99.264 
z
" clip-path="url(#p93f6bcc12e)" style="fill: #369e4b; opacity: 0.5"/>
   </g>
   <g id="patch_44">
    <path d="M 161.577266 563.904 
L 175.489077 563.904 
L 175.489077 460.650667 
L 161.577266 460.650667 
z
" clip-path="url(#p93f6bcc12e)" style="fill: #369e4b; opacity: 0.5"/>
   </g>
   <g id="patch_45">
    <path d="M 175.489077 563.904 
L 189.400889 563.904 
L 189.400889 512.277333 
L 175.489077 512.277333 
z
" clip-path="url(#p93f6bcc12e)" style="fill: #369e4b; opacity: 0.5"/>
   </g>
   <g id="patch_46">
    <path d="M 189.400889 563.904 
L 203.3127 563.904 
L 203.3127 563.904 
L 189.400889 563.904 
z
" clip-path="url(#p93f6bcc12e)" style="fill: #369e4b; opacity: 0.5"/>
   </g>
   <g id="patch_47">
    <path d="M 203.3127 563.904 
L 217.224512 563.904 
L 217.224512 563.904 
L 203.3127 563.904 
z
" clip-path="url(#p93f6bcc12e)" style="fill: #369e4b; opacity: 0.5"/>
   </g>
   <g id="patch_48">
    <path d="M 217.224512 563.904 
L 231.136323 563.904 
L 231.136323 512.277333 
L 217.224512 512.277333 
z
" clip-path="url(#p93f6bcc12e)" style="fill: #369e4b; opacity: 0.5"/>
   </g>
   <g id="patch_49">
    <path d="M 231.136323 563.904 
L 245.048135 563.904 
L 245.048135 563.904 
L 231.136323 563.904 
z
" clip-path="url(#p93f6bcc12e)" style="fill: #369e4b; opacity: 0.5"/>
   </g>
   <g id="patch_50">
    <path d="M 245.048135 563.904 
L 258.959946 563.904 
L 258.959946 512.277333 
L 245.048135 512.277333 
z
" clip-path="url(#p93f6bcc12e)" style="fill: #369e4b; opacity: 0.5"/>
   </g>
   <g id="patch_51">
    <path d="M 258.959946 563.904 
L 272.871757 563.904 
L 272.871757 460.650667 
L 258.959946 460.650667 
z
" clip-path="url(#p93f6bcc12e)" style="fill: #369e4b; opacity: 0.5"/>
   </g>
   <g id="patch_52">
    <path d="M 272.871757 563.904 
L 286.783569 563.904 
L 286.783569 460.650667 
L 272.871757 460.650667 
z
" clip-path="url(#p93f6bcc12e)" style="fill: #369e4b; opacity: 0.5"/>
   </g>
   <g id="patch_53">
    <path d="M 286.783569 563.904 
L 300.69538 563.904 
L 300.69538 563.904 
L 286.783569 563.904 
z
" clip-path="url(#p93f6bcc12e)" style="fill: #369e4b; opacity: 0.5"/>
   </g>
   <g id="patch_54">
    <path d="M 300.69538 563.904 
L 314.607192 563.904 
L 314.607192 563.904 
L 300.69538 563.904 
z
" clip-path="url(#p93f6bcc12e)" style="fill: #369e4b; opacity: 0.5"/>
   </g>
   <g id="patch_55">
    <path d="M 314.607192 563.904 
L 328.519003 563.904 
L 328.519003 460.650667 
L 314.607192 460.650667 
z
" clip-path="url(#p93f6bcc12e)" style="fill: #369e4b; opacity: 0.5"/>
   </g>
   <g id="patch_56">
    <path d="M 328.519003 563.904 
L 342.430815 563.904 
L 342.430815 563.904 
L 328.519003 563.904 
z
" clip-path="url(#p93f6bcc12e)" style="fill: #369e4b; opacity: 0.5"/>
   </g>
   <g id="patch_57">
    <path d="M 342.430815 563.904 
L 356.342626 563.904 
L 356.342626 512.277333 
L 342.430815 512.277333 
z
" clip-path="url(#p93f6bcc12e)" style="fill: #369e4b; opacity: 0.5"/>
   </g>
   <g id="patch_58">
    <path d="M 356.342626 563.904 
L 370.254438 563.904 
L 370.254438 563.904 
L 356.342626 563.904 
z
" clip-path="url(#p93f6bcc12e)" style="fill: #369e4b; opacity: 0.5"/>
   </g>
   <g id="patch_59">
    <path d="M 370.254438 563.904 
L 384.166249 563.904 
L 384.166249 563.904 
L 370.254438 563.904 
z
" clip-path="url(#p93f6bcc12e)" style="fill: #369e4b; opacity: 0.5"/>
   </g>
   <g id="patch_60">
    <path d="M 384.166249 563.904 
L 398.07806 563.904 
L 398.07806 563.904 
L 384.166249 563.904 
z
" clip-path="url(#p93f6bcc12e)" style="fill: #369e4b; opacity: 0.5"/>
   </g>
   <g id="patch_61">
    <path d="M 398.07806 563.904 
L 411.989872 563.904 
L 411.989872 460.650667 
L 398.07806 460.650667 
z
" clip-path="url(#p93f6bcc12e)" style="fill: #369e4b; opacity: 0.5"/>
   </g>
   <g id="patch_62">
    <path d="M 411.989872 563.904 
L 425.901683 563.904 
L 425.901683 512.277333 
L 411.989872 512.277333 
z
" clip-path="url(#p93f6bcc12e)" style="fill: #369e4b; opacity: 0.5"/>
   </g>
   <g id="patch_63">
    <path d="M 147.665455 563.904 
L 168.40689 563.904 
L 168.40689 305.770667 
L 147.665455 305.770667 
z
" clip-path="url(#p93f6bcc12e)" style="fill: #5db5b7; opacity: 0.5"/>
   </g>
   <g id="patch_64">
    <path d="M 168.40689 563.904 
L 189.148325 563.904 
L 189.148325 563.904 
L 168.40689 563.904 
z
" clip-path="url(#p93f6bcc12e)" style="fill: #5db5b7; opacity: 0.5"/>
   </g>
   <g id="patch_65">
    <path d="M 189.148325 563.904 
L 209.88976 563.904 
L 209.88976 512.277333 
L 189.148325 512.277333 
z
" clip-path="url(#p93f6bcc12e)" style="fill: #5db5b7; opacity: 0.5"/>
   </g>
   <g id="patch_66">
    <path d="M 209.88976 563.904 
L 230.631196 563.904 
L 230.631196 563.904 
L 209.88976 563.904 
z
" clip-path="url(#p93f6bcc12e)" style="fill: #5db5b7; opacity: 0.5"/>
   </g>
   <g id="patch_67">
    <path d="M 230.631196 563.904 
L 251.372631 563.904 
L 251.372631 512.277333 
L 230.631196 512.277333 
z
" clip-path="url(#p93f6bcc12e)" style="fill: #5db5b7; opacity: 0.5"/>
   </g>
   <g id="patch_68">
    <path d="M 251.372631 563.904 
L 272.114066 563.904 
L 272.114066 460.650667 
L 251.372631 460.650667 
z
" clip-path="url(#p93f6bcc12e)" style="fill: #5db5b7; opacity: 0.5"/>
   </g>
   <g id="patch_69">
    <path d="M 272.114066 563.904 
L 292.855502 563.904 
L 292.855502 460.650667 
L 272.114066 460.650667 
z
" clip-path="url(#p93f6bcc12e)" style="fill: #5db5b7; opacity: 0.5"/>
   </g>
   <g id="patch_70">
    <path d="M 292.855502 563.904 
L 313.596937 563.904 
L 313.596937 563.904 
L 292.855502 563.904 
z
" clip-path="url(#p93f6bcc12e)" style="fill: #5db5b7; opacity: 0.5"/>
   </g>
   <g id="patch_71">
    <path d="M 313.596937 563.904 
L 334.338372 563.904 
L 334.338372 563.904 
L 313.596937 563.904 
z
" clip-path="url(#p93f6bcc12e)" style="fill: #5db5b7; opacity: 0.5"/>
   </g>
   <g id="patch_72">
    <path d="M 334.338372 563.904 
L 355.079808 563.904 
L 355.079808 563.904 
L 334.338372 563.904 
z
" clip-path="url(#p93f6bcc12e)" style="fill: #5db5b7; opacity: 0.5"/>
   </g>
   <g id="patch_73">
    <path d="M 355.079808 563.904 
L 375.821243 563.904 
L 375.821243 460.650667 
L 355.079808 460.650667 
z
" clip-path="url(#p93f6bcc12e)" style="fill: #5db5b7; opacity: 0.5"/>
   </g>
   <g id="patch_74">
    <path d="M 375.821243 563.904 
L 396.562678 563.904 
L 396.562678 460.650667 
L 375.821243 460.650667 
z
" clip-path="url(#p93f6bcc12e)" style="fill: #5db5b7; opacity: 0.5"/>
   </g>
   <g id="patch_75">
    <path d="M 396.562678 563.904 
L 417.304114 563.904 
L 417.304114 512.277333 
L 396.562678 512.277333 
z
" clip-path="url(#p93f6bcc12e)" style="fill: #5db5b7; opacity: 0.5"/>
   </g>
   <g id="patch_76">
    <path d="M 417.304114 563.904 
L 438.045549 563.904 
L 438.045549 563.904 
L 417.304114 563.904 
z
" clip-path="url(#p93f6bcc12e)" style="fill: #5db5b7; opacity: 0.5"/>
   </g>
   <g id="patch_77">
    <path d="M 438.045549 563.904 
L 458.786984 563.904 
L 458.786984 512.277333 
L 438.045549 512.277333 
z
" clip-path="url(#p93f6bcc12e)" style="fill: #5db5b7; opacity: 0.5"/>
   </g>
   <g id="patch_78">
    <path d="M 458.786984 563.904 
L 479.52842 563.904 
L 479.52842 512.277333 
L 458.786984 512.277333 
z
" clip-path="url(#p93f6bcc12e)" style="fill: #5db5b7; opacity: 0.5"/>
   </g>
   <g id="patch_79">
    <path d="M 479.52842 563.904 
L 500.269855 563.904 
L 500.269855 409.024 
L 479.52842 409.024 
z
" clip-path="url(#p93f6bcc12e)" style="fill: #5db5b7; opacity: 0.5"/>
   </g>
   <g id="patch_80">
    <path d="M 500.269855 563.904 
L 521.01129 563.904 
L 521.01129 512.277333 
L 500.269855 512.277333 
z
" clip-path="url(#p93f6bcc12e)" style="fill: #5db5b7; opacity: 0.5"/>
   </g>
   <g id="patch_81">
    <path d="M 521.01129 563.904 
L 541.752725 563.904 
L 541.752725 563.904 
L 521.01129 563.904 
z
" clip-path="url(#p93f6bcc12e)" style="fill: #5db5b7; opacity: 0.5"/>
   </g>
   <g id="patch_82">
    <path d="M 541.752725 563.904 
L 562.494161 563.904 
L 562.494161 460.650667 
L 541.752725 460.650667 
z
" clip-path="url(#p93f6bcc12e)" style="fill: #5db5b7; opacity: 0.5"/>
   </g>
   <g id="matplotlib.axis_1">
    <g id="xtick_1">
     <g id="line2d_1">
      <defs>
       <path id="mcedc55186a" d="M 0 0 
L 0 3.5 
" style="stroke: #000000; stroke-width: 1.6"/>
      </defs>
      <g>
       <use xlink:href="#mcedc55186a" x="147.665455" y="563.904" style="stroke: #000000; stroke-width: 1.6"/>
      </g>
     </g>
     <g id="text_1">
      <!-- 0.000 -->
      <g transform="translate(124.762955 590.7615) scale(0.16 -0.16)">
       <defs>
        <path id="DejaVuSans-30" d="M 2034 4250 
Q 1547 4250 1301 3770 
Q 1056 3291 1056 2328 
Q 1056 1369 1301 889 
Q 1547 409 2034 409 
Q 2525 409 2770 889 
Q 3016 1369 3016 2328 
Q 3016 3291 2770 3770 
Q 2525 4250 2034 4250 
z
M 2034 4750 
Q 2819 4750 3233 4129 
Q 3647 3509 3647 2328 
Q 3647 1150 3233 529 
Q 2819 -91 2034 -91 
Q 1250 -91 836 529 
Q 422 1150 422 2328 
Q 422 3509 836 4129 
Q 1250 4750 2034 4750 
z
" transform="scale(0.015625)"/>
        <path id="DejaVuSans-2e" d="M 684 794 
L 1344 794 
L 1344 0 
L 684 0 
L 684 794 
z
" transform="scale(0.015625)"/>
       </defs>
       <use xlink:href="#DejaVuSans-30"/>
       <use xlink:href="#DejaVuSans-2e" x="63.623047"/>
       <use xlink:href="#DejaVuSans-30" x="95.410156"/>
       <use xlink:href="#DejaVuSans-30" x="159.033203"/>
       <use xlink:href="#DejaVuSans-30" x="222.65625"/>
      </g>
     </g>
    </g>
    <g id="xtick_2">
     <g id="line2d_2">
      <g>
       <use xlink:href="#mcedc55186a" x="237.491824" y="563.904" style="stroke: #000000; stroke-width: 1.6"/>
      </g>
     </g>
     <g id="text_2">
      <!-- 0.002 -->
      <g transform="translate(214.589324 590.7615) scale(0.16 -0.16)">
       <defs>
        <path id="DejaVuSans-32" d="M 1228 531 
L 3431 531 
L 3431 0 
L 469 0 
L 469 531 
Q 828 903 1448 1529 
Q 2069 2156 2228 2338 
Q 2531 2678 2651 2914 
Q 2772 3150 2772 3378 
Q 2772 3750 2511 3984 
Q 2250 4219 1831 4219 
Q 1534 4219 1204 4116 
Q 875 4013 500 3803 
L 500 4441 
Q 881 4594 1212 4672 
Q 1544 4750 1819 4750 
Q 2544 4750 2975 4387 
Q 3406 4025 3406 3419 
Q 3406 3131 3298 2873 
Q 3191 2616 2906 2266 
Q 2828 2175 2409 1742 
Q 1991 1309 1228 531 
z
" transform="scale(0.015625)"/>
       </defs>
       <use xlink:href="#DejaVuSans-30"/>
       <use xlink:href="#DejaVuSans-2e" x="63.623047"/>
       <use xlink:href="#DejaVuSans-30" x="95.410156"/>
       <use xlink:href="#DejaVuSans-30" x="159.033203"/>
       <use xlink:href="#DejaVuSans-32" x="222.65625"/>
      </g>
     </g>
    </g>
    <g id="xtick_3">
     <g id="line2d_3">
      <g>
       <use xlink:href="#mcedc55186a" x="327.318194" y="563.904" style="stroke: #000000; stroke-width: 1.6"/>
      </g>
     </g>
     <g id="text_3">
      <!-- 0.004 -->
      <g transform="translate(304.415694 590.7615) scale(0.16 -0.16)">
       <defs>
        <path id="DejaVuSans-34" d="M 2419 4116 
L 825 1625 
L 2419 1625 
L 2419 4116 
z
M 2253 4666 
L 3047 4666 
L 3047 1625 
L 3713 1625 
L 3713 1100 
L 3047 1100 
L 3047 0 
L 2419 0 
L 2419 1100 
L 313 1100 
L 313 1709 
L 2253 4666 
z
" transform="scale(0.015625)"/>
       </defs>
       <use xlink:href="#DejaVuSans-30"/>
       <use xlink:href="#DejaVuSans-2e" x="63.623047"/>
       <use xlink:href="#DejaVuSans-30" x="95.410156"/>
       <use xlink:href="#DejaVuSans-30" x="159.033203"/>
       <use xlink:href="#DejaVuSans-34" x="222.65625"/>
      </g>
     </g>
    </g>
    <g id="xtick_4">
     <g id="line2d_4">
      <g>
       <use xlink:href="#mcedc55186a" x="417.144564" y="563.904" style="stroke: #000000; stroke-width: 1.6"/>
      </g>
     </g>
     <g id="text_4">
      <!-- 0.006 -->
      <g transform="translate(394.242064 590.7615) scale(0.16 -0.16)">
       <defs>
        <path id="DejaVuSans-36" d="M 2113 2584 
Q 1688 2584 1439 2293 
Q 1191 2003 1191 1497 
Q 1191 994 1439 701 
Q 1688 409 2113 409 
Q 2538 409 2786 701 
Q 3034 994 3034 1497 
Q 3034 2003 2786 2293 
Q 2538 2584 2113 2584 
z
M 3366 4563 
L 3366 3988 
Q 3128 4100 2886 4159 
Q 2644 4219 2406 4219 
Q 1781 4219 1451 3797 
Q 1122 3375 1075 2522 
Q 1259 2794 1537 2939 
Q 1816 3084 2150 3084 
Q 2853 3084 3261 2657 
Q 3669 2231 3669 1497 
Q 3669 778 3244 343 
Q 2819 -91 2113 -91 
Q 1303 -91 875 529 
Q 447 1150 447 2328 
Q 447 3434 972 4092 
Q 1497 4750 2381 4750 
Q 2619 4750 2861 4703 
Q 3103 4656 3366 4563 
z
" transform="scale(0.015625)"/>
       </defs>
       <use xlink:href="#DejaVuSans-30"/>
       <use xlink:href="#DejaVuSans-2e" x="63.623047"/>
       <use xlink:href="#DejaVuSans-30" x="95.410156"/>
       <use xlink:href="#DejaVuSans-30" x="159.033203"/>
       <use xlink:href="#DejaVuSans-36" x="222.65625"/>
      </g>
     </g>
    </g>
    <g id="xtick_5">
     <g id="line2d_5">
      <g>
       <use xlink:href="#mcedc55186a" x="506.970934" y="563.904" style="stroke: #000000; stroke-width: 1.6"/>
      </g>
     </g>
     <g id="text_5">
      <!-- 0.008 -->
      <g transform="translate(484.068434 590.7615) scale(0.16 -0.16)">
       <defs>
        <path id="DejaVuSans-38" d="M 2034 2216 
Q 1584 2216 1326 1975 
Q 1069 1734 1069 1313 
Q 1069 891 1326 650 
Q 1584 409 2034 409 
Q 2484 409 2743 651 
Q 3003 894 3003 1313 
Q 3003 1734 2745 1975 
Q 2488 2216 2034 2216 
z
M 1403 2484 
Q 997 2584 770 2862 
Q 544 3141 544 3541 
Q 544 4100 942 4425 
Q 1341 4750 2034 4750 
Q 2731 4750 3128 4425 
Q 3525 4100 3525 3541 
Q 3525 3141 3298 2862 
Q 3072 2584 2669 2484 
Q 3125 2378 3379 2068 
Q 3634 1759 3634 1313 
Q 3634 634 3220 271 
Q 2806 -91 2034 -91 
Q 1263 -91 848 271 
Q 434 634 434 1313 
Q 434 1759 690 2068 
Q 947 2378 1403 2484 
z
M 1172 3481 
Q 1172 3119 1398 2916 
Q 1625 2713 2034 2713 
Q 2441 2713 2670 2916 
Q 2900 3119 2900 3481 
Q 2900 3844 2670 4047 
Q 2441 4250 2034 4250 
Q 1625 4250 1398 4047 
Q 1172 3844 1172 3481 
z
" transform="scale(0.015625)"/>
       </defs>
       <use xlink:href="#DejaVuSans-30"/>
       <use xlink:href="#DejaVuSans-2e" x="63.623047"/>
       <use xlink:href="#DejaVuSans-30" x="95.410156"/>
       <use xlink:href="#DejaVuSans-30" x="159.033203"/>
       <use xlink:href="#DejaVuSans-38" x="222.65625"/>
      </g>
     </g>
    </g>
    <g id="xtick_6">
     <g id="line2d_6">
      <g>
       <use xlink:href="#mcedc55186a" x="596.797304" y="563.904" style="stroke: #000000; stroke-width: 1.6"/>
      </g>
     </g>
     <g id="text_6">
      <!-- 0.010 -->
      <g transform="translate(573.894804 590.7615) scale(0.16 -0.16)">
       <defs>
        <path id="DejaVuSans-31" d="M 794 531 
L 1825 531 
L 1825 4091 
L 703 3866 
L 703 4441 
L 1819 4666 
L 2450 4666 
L 2450 531 
L 3481 531 
L 3481 0 
L 794 0 
L 794 531 
z
" transform="scale(0.015625)"/>
       </defs>
       <use xlink:href="#DejaVuSans-30"/>
       <use xlink:href="#DejaVuSans-2e" x="63.623047"/>
       <use xlink:href="#DejaVuSans-30" x="95.410156"/>
       <use xlink:href="#DejaVuSans-31" x="159.033203"/>
       <use xlink:href="#DejaVuSans-30" x="222.65625"/>
      </g>
     </g>
    </g>
    <g id="xtick_7">
     <g id="line2d_7">
      <g>
       <use xlink:href="#mcedc55186a" x="686.623674" y="563.904" style="stroke: #000000; stroke-width: 1.6"/>
      </g>
     </g>
     <g id="text_7">
      <!-- 0.012 -->
      <g transform="translate(663.721174 590.7615) scale(0.16 -0.16)">
       <use xlink:href="#DejaVuSans-30"/>
       <use xlink:href="#DejaVuSans-2e" x="63.623047"/>
       <use xlink:href="#DejaVuSans-30" x="95.410156"/>
       <use xlink:href="#DejaVuSans-31" x="159.033203"/>
       <use xlink:href="#DejaVuSans-32" x="222.65625"/>
      </g>
     </g>
    </g>
    <g id="xtick_8">
     <g id="line2d_8">
      <g>
       <use xlink:href="#mcedc55186a" x="776.450043" y="563.904" style="stroke: #000000; stroke-width: 1.6"/>
      </g>
     </g>
     <g id="text_8">
      <!-- 0.014 -->
      <g transform="translate(753.547543 590.7615) scale(0.16 -0.16)">
       <use xlink:href="#DejaVuSans-30"/>
       <use xlink:href="#DejaVuSans-2e" x="63.623047"/>
       <use xlink:href="#DejaVuSans-30" x="95.410156"/>
       <use xlink:href="#DejaVuSans-31" x="159.033203"/>
       <use xlink:href="#DejaVuSans-34" x="222.65625"/>
      </g>
     </g>
    </g>
    <g id="text_9">
     <!-- Values -->
     <g transform="translate(443.56875 611.46225) scale(0.176 -0.176)">
      <defs>
       <path id="DejaVuSans-56" d="M 1831 0 
L 50 4666 
L 709 4666 
L 2188 738 
L 3669 4666 
L 4325 4666 
L 2547 0 
L 1831 0 
z
" transform="scale(0.015625)"/>
       <path id="DejaVuSans-61" d="M 2194 1759 
Q 1497 1759 1228 1600 
Q 959 1441 959 1056 
Q 959 750 1161 570 
Q 1363 391 1709 391 
Q 2188 391 2477 730 
Q 2766 1069 2766 1631 
L 2766 1759 
L 2194 1759 
z
M 3341 1997 
L 3341 0 
L 2766 0 
L 2766 531 
Q 2569 213 2275 61 
Q 1981 -91 1556 -91 
Q 1019 -91 701 211 
Q 384 513 384 1019 
Q 384 1609 779 1909 
Q 1175 2209 1959 2209 
L 2766 2209 
L 2766 2266 
Q 2766 2663 2505 2880 
Q 2244 3097 1772 3097 
Q 1472 3097 1187 3025 
Q 903 2953 641 2809 
L 641 3341 
Q 956 3463 1253 3523 
Q 1550 3584 1831 3584 
Q 2591 3584 2966 3190 
Q 3341 2797 3341 1997 
z
" transform="scale(0.015625)"/>
       <path id="DejaVuSans-6c" d="M 603 4863 
L 1178 4863 
L 1178 0 
L 603 0 
L 603 4863 
z
" transform="scale(0.015625)"/>
       <path id="DejaVuSans-75" d="M 544 1381 
L 544 3500 
L 1119 3500 
L 1119 1403 
Q 1119 906 1312 657 
Q 1506 409 1894 409 
Q 2359 409 2629 706 
Q 2900 1003 2900 1516 
L 2900 3500 
L 3475 3500 
L 3475 0 
L 2900 0 
L 2900 538 
Q 2691 219 2414 64 
Q 2138 -91 1772 -91 
Q 1169 -91 856 284 
Q 544 659 544 1381 
z
M 1991 3584 
L 1991 3584 
z
" transform="scale(0.015625)"/>
       <path id="DejaVuSans-65" d="M 3597 1894 
L 3597 1613 
L 953 1613 
Q 991 1019 1311 708 
Q 1631 397 2203 397 
Q 2534 397 2845 478 
Q 3156 559 3463 722 
L 3463 178 
Q 3153 47 2828 -22 
Q 2503 -91 2169 -91 
Q 1331 -91 842 396 
Q 353 884 353 1716 
Q 353 2575 817 3079 
Q 1281 3584 2069 3584 
Q 2775 3584 3186 3129 
Q 3597 2675 3597 1894 
z
M 3022 2063 
Q 3016 2534 2758 2815 
Q 2500 3097 2075 3097 
Q 1594 3097 1305 2825 
Q 1016 2553 972 2059 
L 3022 2063 
z
" transform="scale(0.015625)"/>
       <path id="DejaVuSans-73" d="M 2834 3397 
L 2834 2853 
Q 2591 2978 2328 3040 
Q 2066 3103 1784 3103 
Q 1356 3103 1142 2972 
Q 928 2841 928 2578 
Q 928 2378 1081 2264 
Q 1234 2150 1697 2047 
L 1894 2003 
Q 2506 1872 2764 1633 
Q 3022 1394 3022 966 
Q 3022 478 2636 193 
Q 2250 -91 1575 -91 
Q 1294 -91 989 -36 
Q 684 19 347 128 
L 347 722 
Q 666 556 975 473 
Q 1284 391 1588 391 
Q 1994 391 2212 530 
Q 2431 669 2431 922 
Q 2431 1156 2273 1281 
Q 2116 1406 1581 1522 
L 1381 1569 
Q 847 1681 609 1914 
Q 372 2147 372 2553 
Q 372 3047 722 3315 
Q 1072 3584 1716 3584 
Q 2034 3584 2315 3537 
Q 2597 3491 2834 3397 
z
" transform="scale(0.015625)"/>
      </defs>
      <use xlink:href="#DejaVuSans-56"/>
      <use xlink:href="#DejaVuSans-61" x="60.658203"/>
      <use xlink:href="#DejaVuSans-6c" x="121.9375"/>
      <use xlink:href="#DejaVuSans-75" x="149.720703"/>
      <use xlink:href="#DejaVuSans-65" x="213.099609"/>
      <use xlink:href="#DejaVuSans-73" x="274.623047"/>
     </g>
    </g>
   </g>
   <g id="matplotlib.axis_2">
    <g id="ytick_1">
     <g id="line2d_9">
      <defs>
       <path id="me2cfdf496b" d="M 0 0 
L -3.5 0 
" style="stroke: #000000; stroke-width: 1.6"/>
      </defs>
      <g>
       <use xlink:href="#me2cfdf496b" x="115.2" y="563.904" style="stroke: #000000; stroke-width: 1.6"/>
      </g>
     </g>
     <g id="text_10">
      <!-- 0 -->
      <g transform="translate(90.32 569.98275) scale(0.16 -0.16)">
       <use xlink:href="#DejaVuSans-30"/>
      </g>
     </g>
    </g>
    <g id="ytick_2">
     <g id="line2d_10">
      <g>
       <use xlink:href="#me2cfdf496b" x="115.2" y="460.650667" style="stroke: #000000; stroke-width: 1.6"/>
      </g>
     </g>
     <g id="text_11">
      <!-- 2 -->
      <g transform="translate(90.32 466.729417) scale(0.16 -0.16)">
       <use xlink:href="#DejaVuSans-32"/>
      </g>
     </g>
    </g>
    <g id="ytick_3">
     <g id="line2d_11">
      <g>
       <use xlink:href="#me2cfdf496b" x="115.2" y="357.397333" style="stroke: #000000; stroke-width: 1.6"/>
      </g>
     </g>
     <g id="text_12">
      <!-- 4 -->
      <g transform="translate(90.32 363.476083) scale(0.16 -0.16)">
       <use xlink:href="#DejaVuSans-34"/>
      </g>
     </g>
    </g>
    <g id="ytick_4">
     <g id="line2d_12">
      <g>
       <use xlink:href="#me2cfdf496b" x="115.2" y="254.144" style="stroke: #000000; stroke-width: 1.6"/>
      </g>
     </g>
     <g id="text_13">
      <!-- 6 -->
      <g transform="translate(90.32 260.22275) scale(0.16 -0.16)">
       <use xlink:href="#DejaVuSans-36"/>
      </g>
     </g>
    </g>
    <g id="ytick_5">
     <g id="line2d_13">
      <g>
       <use xlink:href="#me2cfdf496b" x="115.2" y="150.890667" style="stroke: #000000; stroke-width: 1.6"/>
      </g>
     </g>
     <g id="text_14">
      <!-- 8 -->
      <g transform="translate(90.32 156.969417) scale(0.16 -0.16)">
       <use xlink:href="#DejaVuSans-38"/>
      </g>
     </g>
    </g>
    <g id="text_15">
     <!-- Frequency -->
     <g transform="translate(82.65975 365.42825) rotate(-90) scale(0.176 -0.176)">
      <defs>
       <path id="DejaVuSans-46" d="M 628 4666 
L 3309 4666 
L 3309 4134 
L 1259 4134 
L 1259 2759 
L 3109 2759 
L 3109 2228 
L 1259 2228 
L 1259 0 
L 628 0 
L 628 4666 
z
" transform="scale(0.015625)"/>
       <path id="DejaVuSans-72" d="M 2631 2963 
Q 2534 3019 2420 3045 
Q 2306 3072 2169 3072 
Q 1681 3072 1420 2755 
Q 1159 2438 1159 1844 
L 1159 0 
L 581 0 
L 581 3500 
L 1159 3500 
L 1159 2956 
Q 1341 3275 1631 3429 
Q 1922 3584 2338 3584 
Q 2397 3584 2469 3576 
Q 2541 3569 2628 3553 
L 2631 2963 
z
" transform="scale(0.015625)"/>
       <path id="DejaVuSans-71" d="M 947 1747 
Q 947 1113 1208 752 
Q 1469 391 1925 391 
Q 2381 391 2643 752 
Q 2906 1113 2906 1747 
Q 2906 2381 2643 2742 
Q 2381 3103 1925 3103 
Q 1469 3103 1208 2742 
Q 947 2381 947 1747 
z
M 2906 525 
Q 2725 213 2448 61 
Q 2172 -91 1784 -91 
Q 1150 -91 751 415 
Q 353 922 353 1747 
Q 353 2572 751 3078 
Q 1150 3584 1784 3584 
Q 2172 3584 2448 3432 
Q 2725 3281 2906 2969 
L 2906 3500 
L 3481 3500 
L 3481 -1331 
L 2906 -1331 
L 2906 525 
z
" transform="scale(0.015625)"/>
       <path id="DejaVuSans-6e" d="M 3513 2113 
L 3513 0 
L 2938 0 
L 2938 2094 
Q 2938 2591 2744 2837 
Q 2550 3084 2163 3084 
Q 1697 3084 1428 2787 
Q 1159 2491 1159 1978 
L 1159 0 
L 581 0 
L 581 3500 
L 1159 3500 
L 1159 2956 
Q 1366 3272 1645 3428 
Q 1925 3584 2291 3584 
Q 2894 3584 3203 3211 
Q 3513 2838 3513 2113 
z
" transform="scale(0.015625)"/>
       <path id="DejaVuSans-63" d="M 3122 3366 
L 3122 2828 
Q 2878 2963 2633 3030 
Q 2388 3097 2138 3097 
Q 1578 3097 1268 2742 
Q 959 2388 959 1747 
Q 959 1106 1268 751 
Q 1578 397 2138 397 
Q 2388 397 2633 464 
Q 2878 531 3122 666 
L 3122 134 
Q 2881 22 2623 -34 
Q 2366 -91 2075 -91 
Q 1284 -91 818 406 
Q 353 903 353 1747 
Q 353 2603 823 3093 
Q 1294 3584 2113 3584 
Q 2378 3584 2631 3529 
Q 2884 3475 3122 3366 
z
" transform="scale(0.015625)"/>
       <path id="DejaVuSans-79" d="M 2059 -325 
Q 1816 -950 1584 -1140 
Q 1353 -1331 966 -1331 
L 506 -1331 
L 506 -850 
L 844 -850 
Q 1081 -850 1212 -737 
Q 1344 -625 1503 -206 
L 1606 56 
L 191 3500 
L 800 3500 
L 1894 763 
L 2988 3500 
L 3597 3500 
L 2059 -325 
z
" transform="scale(0.015625)"/>
      </defs>
      <use xlink:href="#DejaVuSans-46"/>
      <use xlink:href="#DejaVuSans-72" x="50.269531"/>
      <use xlink:href="#DejaVuSans-65" x="89.132812"/>
      <use xlink:href="#DejaVuSans-71" x="150.65625"/>
      <use xlink:href="#DejaVuSans-75" x="214.132812"/>
      <use xlink:href="#DejaVuSans-65" x="277.511719"/>
      <use xlink:href="#DejaVuSans-6e" x="339.035156"/>
      <use xlink:href="#DejaVuSans-63" x="402.414062"/>
      <use xlink:href="#DejaVuSans-79" x="457.394531"/>
     </g>
    </g>
   </g>
   <g id="patch_83">
    <path d="M 115.2 563.904 
L 115.2 76.032 
" style="fill: none; stroke: #000000; stroke-width: 0.8; stroke-linejoin: miter; stroke-linecap: square"/>
   </g>
   <g id="patch_84">
    <path d="M 829.44 563.904 
L 829.44 76.032 
" style="fill: none; stroke: #000000; stroke-width: 0.8; stroke-linejoin: miter; stroke-linecap: square"/>
   </g>
   <g id="patch_85">
    <path d="M 115.2 563.904 
L 829.44 563.904 
" style="fill: none; stroke: #000000; stroke-width: 0.8; stroke-linejoin: miter; stroke-linecap: square"/>
   </g>
   <g id="patch_86">
    <path d="M 115.2 76.032 
L 829.44 76.032 
" style="fill: none; stroke: #000000; stroke-width: 0.8; stroke-linejoin: miter; stroke-linecap: square"/>
   </g>
   <g id="text_16">
    <!-- Histogram of 4 Distributions -->
    <g transform="translate(337.0005 70.032) scale(0.192 -0.192)">
     <defs>
      <path id="DejaVuSans-48" d="M 628 4666 
L 1259 4666 
L 1259 2753 
L 3553 2753 
L 3553 4666 
L 4184 4666 
L 4184 0 
L 3553 0 
L 3553 2222 
L 1259 2222 
L 1259 0 
L 628 0 
L 628 4666 
z
" transform="scale(0.015625)"/>
      <path id="DejaVuSans-69" d="M 603 3500 
L 1178 3500 
L 1178 0 
L 603 0 
L 603 3500 
z
M 603 4863 
L 1178 4863 
L 1178 4134 
L 603 4134 
L 603 4863 
z
" transform="scale(0.015625)"/>
      <path id="DejaVuSans-74" d="M 1172 4494 
L 1172 3500 
L 2356 3500 
L 2356 3053 
L 1172 3053 
L 1172 1153 
Q 1172 725 1289 603 
Q 1406 481 1766 481 
L 2356 481 
L 2356 0 
L 1766 0 
Q 1100 0 847 248 
Q 594 497 594 1153 
L 594 3053 
L 172 3053 
L 172 3500 
L 594 3500 
L 594 4494 
L 1172 4494 
z
" transform="scale(0.015625)"/>
      <path id="DejaVuSans-6f" d="M 1959 3097 
Q 1497 3097 1228 2736 
Q 959 2375 959 1747 
Q 959 1119 1226 758 
Q 1494 397 1959 397 
Q 2419 397 2687 759 
Q 2956 1122 2956 1747 
Q 2956 2369 2687 2733 
Q 2419 3097 1959 3097 
z
M 1959 3584 
Q 2709 3584 3137 3096 
Q 3566 2609 3566 1747 
Q 3566 888 3137 398 
Q 2709 -91 1959 -91 
Q 1206 -91 779 398 
Q 353 888 353 1747 
Q 353 2609 779 3096 
Q 1206 3584 1959 3584 
z
" transform="scale(0.015625)"/>
      <path id="DejaVuSans-67" d="M 2906 1791 
Q 2906 2416 2648 2759 
Q 2391 3103 1925 3103 
Q 1463 3103 1205 2759 
Q 947 2416 947 1791 
Q 947 1169 1205 825 
Q 1463 481 1925 481 
Q 2391 481 2648 825 
Q 2906 1169 2906 1791 
z
M 3481 434 
Q 3481 -459 3084 -895 
Q 2688 -1331 1869 -1331 
Q 1566 -1331 1297 -1286 
Q 1028 -1241 775 -1147 
L 775 -588 
Q 1028 -725 1275 -790 
Q 1522 -856 1778 -856 
Q 2344 -856 2625 -561 
Q 2906 -266 2906 331 
L 2906 616 
Q 2728 306 2450 153 
Q 2172 0 1784 0 
Q 1141 0 747 490 
Q 353 981 353 1791 
Q 353 2603 747 3093 
Q 1141 3584 1784 3584 
Q 2172 3584 2450 3431 
Q 2728 3278 2906 2969 
L 2906 3500 
L 3481 3500 
L 3481 434 
z
" transform="scale(0.015625)"/>
      <path id="DejaVuSans-6d" d="M 3328 2828 
Q 3544 3216 3844 3400 
Q 4144 3584 4550 3584 
Q 5097 3584 5394 3201 
Q 5691 2819 5691 2113 
L 5691 0 
L 5113 0 
L 5113 2094 
Q 5113 2597 4934 2840 
Q 4756 3084 4391 3084 
Q 3944 3084 3684 2787 
Q 3425 2491 3425 1978 
L 3425 0 
L 2847 0 
L 2847 2094 
Q 2847 2600 2669 2842 
Q 2491 3084 2119 3084 
Q 1678 3084 1418 2786 
Q 1159 2488 1159 1978 
L 1159 0 
L 581 0 
L 581 3500 
L 1159 3500 
L 1159 2956 
Q 1356 3278 1631 3431 
Q 1906 3584 2284 3584 
Q 2666 3584 2933 3390 
Q 3200 3197 3328 2828 
z
" transform="scale(0.015625)"/>
      <path id="DejaVuSans-20" transform="scale(0.015625)"/>
      <path id="DejaVuSans-66" d="M 2375 4863 
L 2375 4384 
L 1825 4384 
Q 1516 4384 1395 4259 
Q 1275 4134 1275 3809 
L 1275 3500 
L 2222 3500 
L 2222 3053 
L 1275 3053 
L 1275 0 
L 697 0 
L 697 3053 
L 147 3053 
L 147 3500 
L 697 3500 
L 697 3744 
Q 697 4328 969 4595 
Q 1241 4863 1831 4863 
L 2375 4863 
z
" transform="scale(0.015625)"/>
      <path id="DejaVuSans-44" d="M 1259 4147 
L 1259 519 
L 2022 519 
Q 2988 519 3436 956 
Q 3884 1394 3884 2338 
Q 3884 3275 3436 3711 
Q 2988 4147 2022 4147 
L 1259 4147 
z
M 628 4666 
L 1925 4666 
Q 3281 4666 3915 4102 
Q 4550 3538 4550 2338 
Q 4550 1131 3912 565 
Q 3275 0 1925 0 
L 628 0 
L 628 4666 
z
" transform="scale(0.015625)"/>
      <path id="DejaVuSans-62" d="M 3116 1747 
Q 3116 2381 2855 2742 
Q 2594 3103 2138 3103 
Q 1681 3103 1420 2742 
Q 1159 2381 1159 1747 
Q 1159 1113 1420 752 
Q 1681 391 2138 391 
Q 2594 391 2855 752 
Q 3116 1113 3116 1747 
z
M 1159 2969 
Q 1341 3281 1617 3432 
Q 1894 3584 2278 3584 
Q 2916 3584 3314 3078 
Q 3713 2572 3713 1747 
Q 3713 922 3314 415 
Q 2916 -91 2278 -91 
Q 1894 -91 1617 61 
Q 1341 213 1159 525 
L 1159 0 
L 581 0 
L 581 4863 
L 1159 4863 
L 1159 2969 
z
" transform="scale(0.015625)"/>
     </defs>
     <use xlink:href="#DejaVuSans-48"/>
     <use xlink:href="#DejaVuSans-69" x="75.195312"/>
     <use xlink:href="#DejaVuSans-73" x="102.978516"/>
     <use xlink:href="#DejaVuSans-74" x="155.078125"/>
     <use xlink:href="#DejaVuSans-6f" x="194.287109"/>
     <use xlink:href="#DejaVuSans-67" x="255.46875"/>
     <use xlink:href="#DejaVuSans-72" x="318.945312"/>
     <use xlink:href="#DejaVuSans-61" x="360.058594"/>
     <use xlink:href="#DejaVuSans-6d" x="421.337891"/>
     <use xlink:href="#DejaVuSans-20" x="518.75"/>
     <use xlink:href="#DejaVuSans-6f" x="550.537109"/>
     <use xlink:href="#DejaVuSans-66" x="611.71875"/>
     <use xlink:href="#DejaVuSans-20" x="646.923828"/>
     <use xlink:href="#DejaVuSans-34" x="678.710938"/>
     <use xlink:href="#DejaVuSans-20" x="742.333984"/>
     <use xlink:href="#DejaVuSans-44" x="774.121094"/>
     <use xlink:href="#DejaVuSans-69" x="851.123047"/>
     <use xlink:href="#DejaVuSans-73" x="878.90625"/>
     <use xlink:href="#DejaVuSans-74" x="931.005859"/>
     <use xlink:href="#DejaVuSans-72" x="970.214844"/>
     <use xlink:href="#DejaVuSans-69" x="1011.328125"/>
     <use xlink:href="#DejaVuSans-62" x="1039.111328"/>
     <use xlink:href="#DejaVuSans-75" x="1102.587891"/>
     <use xlink:href="#DejaVuSans-74" x="1165.966797"/>
     <use xlink:href="#DejaVuSans-69" x="1205.175781"/>
     <use xlink:href="#DejaVuSans-6f" x="1232.958984"/>
     <use xlink:href="#DejaVuSans-6e" x="1294.140625"/>
     <use xlink:href="#DejaVuSans-73" x="1357.519531"/>
    </g>
   </g>
   <g id="legend_1">
    <g id="patch_87">
     <path d="M 607.95 184.552 
L 818.24 184.552 
Q 821.44 184.552 821.44 181.352 
L 821.44 87.232 
Q 821.44 84.032 818.24 84.032 
L 607.95 84.032 
Q 604.75 84.032 604.75 87.232 
L 604.75 181.352 
Q 604.75 184.552 607.95 184.552 
z
" style="fill: #ffffff; opacity: 0.8; stroke: #cccccc; stroke-width: 0.48; stroke-linejoin: miter"/>
    </g>
    <g id="patch_88">
     <path d="M 611.15 102.5895 
L 643.15 102.5895 
L 643.15 91.3895 
L 611.15 91.3895 
z
" style="fill: #d31e25; opacity: 0.5"/>
    </g>
    <g id="text_17">
     <!-- WT_Basic_2.5Gy -->
     <g transform="translate(655.95 102.5895) scale(0.16 -0.16)">
      <defs>
       <path id="DejaVuSans-57" d="M 213 4666 
L 850 4666 
L 1831 722 
L 2809 4666 
L 3519 4666 
L 4500 722 
L 5478 4666 
L 6119 4666 
L 4947 0 
L 4153 0 
L 3169 4050 
L 2175 0 
L 1381 0 
L 213 4666 
z
" transform="scale(0.015625)"/>
       <path id="DejaVuSans-54" d="M -19 4666 
L 3928 4666 
L 3928 4134 
L 2272 4134 
L 2272 0 
L 1638 0 
L 1638 4134 
L -19 4134 
L -19 4666 
z
" transform="scale(0.015625)"/>
       <path id="DejaVuSans-5f" d="M 3263 -1063 
L 3263 -1509 
L -63 -1509 
L -63 -1063 
L 3263 -1063 
z
" transform="scale(0.015625)"/>
       <path id="DejaVuSans-42" d="M 1259 2228 
L 1259 519 
L 2272 519 
Q 2781 519 3026 730 
Q 3272 941 3272 1375 
Q 3272 1813 3026 2020 
Q 2781 2228 2272 2228 
L 1259 2228 
z
M 1259 4147 
L 1259 2741 
L 2194 2741 
Q 2656 2741 2882 2914 
Q 3109 3088 3109 3444 
Q 3109 3797 2882 3972 
Q 2656 4147 2194 4147 
L 1259 4147 
z
M 628 4666 
L 2241 4666 
Q 2963 4666 3353 4366 
Q 3744 4066 3744 3513 
Q 3744 3084 3544 2831 
Q 3344 2578 2956 2516 
Q 3422 2416 3680 2098 
Q 3938 1781 3938 1306 
Q 3938 681 3513 340 
Q 3088 0 2303 0 
L 628 0 
L 628 4666 
z
" transform="scale(0.015625)"/>
       <path id="DejaVuSans-35" d="M 691 4666 
L 3169 4666 
L 3169 4134 
L 1269 4134 
L 1269 2991 
Q 1406 3038 1543 3061 
Q 1681 3084 1819 3084 
Q 2600 3084 3056 2656 
Q 3513 2228 3513 1497 
Q 3513 744 3044 326 
Q 2575 -91 1722 -91 
Q 1428 -91 1123 -41 
Q 819 9 494 109 
L 494 744 
Q 775 591 1075 516 
Q 1375 441 1709 441 
Q 2250 441 2565 725 
Q 2881 1009 2881 1497 
Q 2881 1984 2565 2268 
Q 2250 2553 1709 2553 
Q 1456 2553 1204 2497 
Q 953 2441 691 2322 
L 691 4666 
z
" transform="scale(0.015625)"/>
       <path id="DejaVuSans-47" d="M 3809 666 
L 3809 1919 
L 2778 1919 
L 2778 2438 
L 4434 2438 
L 4434 434 
Q 4069 175 3628 42 
Q 3188 -91 2688 -91 
Q 1594 -91 976 548 
Q 359 1188 359 2328 
Q 359 3472 976 4111 
Q 1594 4750 2688 4750 
Q 3144 4750 3555 4637 
Q 3966 4525 4313 4306 
L 4313 3634 
Q 3963 3931 3569 4081 
Q 3175 4231 2741 4231 
Q 1884 4231 1454 3753 
Q 1025 3275 1025 2328 
Q 1025 1384 1454 906 
Q 1884 428 2741 428 
Q 3075 428 3337 486 
Q 3600 544 3809 666 
z
" transform="scale(0.015625)"/>
      </defs>
      <use xlink:href="#DejaVuSans-57"/>
      <use xlink:href="#DejaVuSans-54" x="98.876953"/>
      <use xlink:href="#DejaVuSans-5f" x="159.960938"/>
      <use xlink:href="#DejaVuSans-42" x="209.960938"/>
      <use xlink:href="#DejaVuSans-61" x="278.564453"/>
      <use xlink:href="#DejaVuSans-73" x="339.84375"/>
      <use xlink:href="#DejaVuSans-69" x="391.943359"/>
      <use xlink:href="#DejaVuSans-63" x="419.726562"/>
      <use xlink:href="#DejaVuSans-5f" x="474.707031"/>
      <use xlink:href="#DejaVuSans-32" x="524.707031"/>
      <use xlink:href="#DejaVuSans-2e" x="588.330078"/>
      <use xlink:href="#DejaVuSans-35" x="620.117188"/>
      <use xlink:href="#DejaVuSans-47" x="683.740234"/>
      <use xlink:href="#DejaVuSans-79" x="761.230469"/>
     </g>
    </g>
    <g id="patch_89">
     <path d="M 611.15 126.5195 
L 643.15 126.5195 
L 643.15 115.3195 
L 611.15 115.3195 
z
" style="fill: #d7a32e; opacity: 0.5"/>
    </g>
    <g id="text_18">
     <!-- WT_Basic_5Gy -->
     <g transform="translate(655.95 126.5195) scale(0.16 -0.16)">
      <use xlink:href="#DejaVuSans-57"/>
      <use xlink:href="#DejaVuSans-54" x="98.876953"/>
      <use xlink:href="#DejaVuSans-5f" x="159.960938"/>
      <use xlink:href="#DejaVuSans-42" x="209.960938"/>
      <use xlink:href="#DejaVuSans-61" x="278.564453"/>
      <use xlink:href="#DejaVuSans-73" x="339.84375"/>
      <use xlink:href="#DejaVuSans-69" x="391.943359"/>
      <use xlink:href="#DejaVuSans-63" x="419.726562"/>
      <use xlink:href="#DejaVuSans-5f" x="474.707031"/>
      <use xlink:href="#DejaVuSans-35" x="524.707031"/>
      <use xlink:href="#DejaVuSans-47" x="588.330078"/>
      <use xlink:href="#DejaVuSans-79" x="665.820312"/>
     </g>
    </g>
    <g id="patch_90">
     <path d="M 611.15 150.4495 
L 643.15 150.4495 
L 643.15 139.2495 
L 611.15 139.2495 
z
" style="fill: #369e4b; opacity: 0.5"/>
    </g>
    <g id="text_19">
     <!-- WT_Complex_2.5Gy -->
     <g transform="translate(655.95 150.4495) scale(0.16 -0.16)">
      <defs>
       <path id="DejaVuSans-43" d="M 4122 4306 
L 4122 3641 
Q 3803 3938 3442 4084 
Q 3081 4231 2675 4231 
Q 1875 4231 1450 3742 
Q 1025 3253 1025 2328 
Q 1025 1406 1450 917 
Q 1875 428 2675 428 
Q 3081 428 3442 575 
Q 3803 722 4122 1019 
L 4122 359 
Q 3791 134 3420 21 
Q 3050 -91 2638 -91 
Q 1578 -91 968 557 
Q 359 1206 359 2328 
Q 359 3453 968 4101 
Q 1578 4750 2638 4750 
Q 3056 4750 3426 4639 
Q 3797 4528 4122 4306 
z
" transform="scale(0.015625)"/>
       <path id="DejaVuSans-70" d="M 1159 525 
L 1159 -1331 
L 581 -1331 
L 581 3500 
L 1159 3500 
L 1159 2969 
Q 1341 3281 1617 3432 
Q 1894 3584 2278 3584 
Q 2916 3584 3314 3078 
Q 3713 2572 3713 1747 
Q 3713 922 3314 415 
Q 2916 -91 2278 -91 
Q 1894 -91 1617 61 
Q 1341 213 1159 525 
z
M 3116 1747 
Q 3116 2381 2855 2742 
Q 2594 3103 2138 3103 
Q 1681 3103 1420 2742 
Q 1159 2381 1159 1747 
Q 1159 1113 1420 752 
Q 1681 391 2138 391 
Q 2594 391 2855 752 
Q 3116 1113 3116 1747 
z
" transform="scale(0.015625)"/>
       <path id="DejaVuSans-78" d="M 3513 3500 
L 2247 1797 
L 3578 0 
L 2900 0 
L 1881 1375 
L 863 0 
L 184 0 
L 1544 1831 
L 300 3500 
L 978 3500 
L 1906 2253 
L 2834 3500 
L 3513 3500 
z
" transform="scale(0.015625)"/>
      </defs>
      <use xlink:href="#DejaVuSans-57"/>
      <use xlink:href="#DejaVuSans-54" x="98.876953"/>
      <use xlink:href="#DejaVuSans-5f" x="159.960938"/>
      <use xlink:href="#DejaVuSans-43" x="209.960938"/>
      <use xlink:href="#DejaVuSans-6f" x="279.785156"/>
      <use xlink:href="#DejaVuSans-6d" x="340.966797"/>
      <use xlink:href="#DejaVuSans-70" x="438.378906"/>
      <use xlink:href="#DejaVuSans-6c" x="501.855469"/>
      <use xlink:href="#DejaVuSans-65" x="529.638672"/>
      <use xlink:href="#DejaVuSans-78" x="589.412109"/>
      <use xlink:href="#DejaVuSans-5f" x="648.591797"/>
      <use xlink:href="#DejaVuSans-32" x="698.591797"/>
      <use xlink:href="#DejaVuSans-2e" x="762.214844"/>
      <use xlink:href="#DejaVuSans-35" x="794.001953"/>
      <use xlink:href="#DejaVuSans-47" x="857.625"/>
      <use xlink:href="#DejaVuSans-79" x="935.115234"/>
     </g>
    </g>
    <g id="patch_91">
     <path d="M 611.15 174.3795 
L 643.15 174.3795 
L 643.15 163.1795 
L 611.15 163.1795 
z
" style="fill: #5db5b7; opacity: 0.5"/>
    </g>
    <g id="text_20">
     <!-- WT_Complex_5Gy -->
     <g transform="translate(655.95 174.3795) scale(0.16 -0.16)">
      <use xlink:href="#DejaVuSans-57"/>
      <use xlink:href="#DejaVuSans-54" x="98.876953"/>
      <use xlink:href="#DejaVuSans-5f" x="159.960938"/>
      <use xlink:href="#DejaVuSans-43" x="209.960938"/>
      <use xlink:href="#DejaVuSans-6f" x="279.785156"/>
      <use xlink:href="#DejaVuSans-6d" x="340.966797"/>
      <use xlink:href="#DejaVuSans-70" x="438.378906"/>
      <use xlink:href="#DejaVuSans-6c" x="501.855469"/>
      <use xlink:href="#DejaVuSans-65" x="529.638672"/>
      <use xlink:href="#DejaVuSans-78" x="589.412109"/>
      <use xlink:href="#DejaVuSans-5f" x="648.591797"/>
      <use xlink:href="#DejaVuSans-35" x="698.591797"/>
      <use xlink:href="#DejaVuSans-47" x="762.214844"/>
      <use xlink:href="#DejaVuSans-79" x="839.705078"/>
     </g>
    </g>
   </g>
  </g>
 </g>
 <defs>
  <clipPath id="p93f6bcc12e">
   <rect x="115.2" y="76.032" width="714.24" height="487.872"/>
  </clipPath>
 </defs>
</svg>
